<svg width="20" height="20" viewBox="0 0 20 20" fill="none" xmlns="http://www.w3.org/2000/svg">
<path d="M0.949997 9.84766C0.949997 9.60352 1.05742 9.37891 1.25273 9.19336L7.71758 2.73828C7.93242 2.52344 8.1375 2.44531 8.37187 2.44531C8.85039 2.44531 9.23125 2.79688 9.23125 3.28516C9.23125 3.51953 9.14336 3.74414 8.98711 3.90039L6.79961 6.12695L3.51836 9.125L5.87187 8.97852H18.2254C18.7332 8.97852 19.0848 9.33984 19.0848 9.84766C19.0848 10.3555 18.7332 10.7168 18.2254 10.7168H5.87187L3.50859 10.5703L6.79961 13.5684L8.98711 15.7949C9.14336 15.9414 9.23125 16.1758 9.23125 16.4102C9.23125 16.8984 8.85039 17.25 8.37187 17.25C8.1375 17.25 7.93242 17.1621 7.73711 16.9766L1.25273 10.502C1.05742 10.3164 0.949997 10.0918 0.949997 9.84766Z" fill="#1A1A1A"/>
</svg>
